<svg xmlns="http://www.w3.org/2000/svg" width="128" height="128" viewBox="0 0 24 24"><g><g><g><path fill="none" stroke="#b388ff" stroke-linecap="round" stroke-width="4" d="M12 12Z" transform="rotate(360, 12, 12)"/></g></g><g><g><path fill="none" stroke="#aeea00" stroke-width="4" d="M 21.510565162951536 8.909830056250526 A 10 10 0 0 0 12 6" transform="rotate(0, 12, 12)"/></g><g><path fill="none" stroke="#ff1744" stroke-width="4" d="M 21.510565162951536 8.909830056250526 A 10 10 0 0 0 12 6" transform="rotate(72, 12, 12)"/></g><g><path fill="none" stroke="#d500f9" stroke-width="4" d="M 21.510565162951536 8.909830056250526 A 10 10 0 0 0 12 6" transform="rotate(144, 12, 12)"/></g><g><path fill="none" stroke="#ffab00" stroke-width="4" d="M 21.510565162951536 8.909830056250526 A 10 10 0 0 0 12 6" transform="rotate(216, 12, 12)"/></g><g><path fill="none" stroke="#00b0ff" stroke-width="4" d="M 21.510565162951536 8.909830056250526 A 10 10 0 0 0 12 6" transform="rotate(288, 12, 12)"/></g><g><path fill="none" stroke="#aeea00" stroke-linecap="round" stroke-width="4.2" d="M12.59 5.88Z" transform="rotate(72, 12, 12)"/></g><g><path fill="none" stroke="#ff1744" stroke-linecap="round" stroke-width="4.2" d="M12.59 5.88Z" transform="rotate(144, 12, 12)"/></g><g><path fill="none" stroke="#d500f9" stroke-linecap="round" stroke-width="4.2" d="M12.59 5.88Z" transform="rotate(216, 12, 12)"/></g><g><path fill="none" stroke="#ffab00" stroke-linecap="round" stroke-width="4.2" d="M12.59 5.88Z" transform="rotate(288, 12, 12)"/></g><g><path fill="none" stroke="#00b0ff" stroke-linecap="round" stroke-width="4.2" d="M12.59 5.88Z" transform="rotate(360, 12, 12)"/></g></g></g></svg>